<svg id="Capa_1" enable-background="new 0 0 512 512" height="512" viewBox="0 0 512 512" width="512" xmlns="http://www.w3.org/2000/svg"><g><path d="m40 157.101v17.899c0 30.327 24.673 55 55 55s55-24.673 55-55v-17.899l39.423-137.98c1.556-5.446-.089-11.304-4.251-15.146-4.165-3.841-10.136-5.008-15.438-3.02l-74.734 28.025-74.733-28.025c-5.301-1.988-11.274-.821-15.439 3.02-4.162 3.841-5.807 9.699-4.251 15.146zm70-101.706 42.401-15.9-28.715 100.505h-13.686zm10 114.605v5c0 13.785-11.215 25-25 25s-25-11.215-25-25v-5h25zm-40-114.605v84.605h-13.685l-28.716-100.505z"/><path d="m472.071 39.929c-29.67-29.67-71.315-43.562-117.259-39.116-44.856 4.341-88.595 25.766-123.157 60.329-34.562 34.562-55.987 78.3-60.329 123.157-3.912 40.429 6.38 77.523 29.122 106.063l-70.594 70.594-10.606-10.606c-5.857-5.858-15.355-5.858-21.213 0l-84.853 84.853c-8.501 8.498-13.182 19.799-13.182 31.819s4.681 23.321 13.181 31.82c8.772 8.772 20.296 13.158 31.819 13.158s23.047-4.386 31.819-13.159l84.854-84.853c2.813-2.813 4.394-6.628 4.394-10.606s-1.58-7.793-4.394-10.606l-10.607-10.607 70.599-70.598c24.571 19.569 55.473 29.917 89.389 29.917 5.475 0 11.029-.27 16.646-.813 44.856-4.341 88.595-25.766 123.157-60.329 34.562-34.562 55.987-78.3 60.329-123.157 4.447-45.946-9.444-87.59-39.115-117.26zm-416.464 437.699c-5.848 5.849-15.365 5.849-21.213 0-5.849-5.849-5.849-15.365 0-21.214l74.246-74.246 21.214 21.213zm345.18-444.197c14.25 3.447 27.31 9.466 38.677 17.893l-26.082 26.082-28.285-28.285zm-111.857 111.857 26.87-26.87 28.285 28.285-26.871 26.87zm7.072 49.497-26.871 26.871-28.284-28.284 26.871-26.871zm69.296-26.87 28.284 28.285-26.87 26.87-28.285-28.284zm21.213-21.213 26.87-26.87 28.284 28.284-26.87 26.87zm-22.627-76.368 28.285 28.285-26.87 26.87-28.285-28.285zm-34.249-34.249 13.036 13.036-26.87 26.87-23.787-23.787c12.055-6.953 24.691-12.374 37.621-16.119zm-76.767 46.27c4.528-4.528 9.235-8.79 14.092-12.779l27.628 27.628-26.87 26.87-27.628-27.627c3.989-4.857 8.25-9.564 12.778-14.092zm-30.151 39.145 23.787 23.787-26.871 26.871-13.036-13.036c3.746-12.93 9.167-25.566 16.12-37.622zm-18.776 108.777 15.693-15.693 28.284 28.284-26.085 26.085c-8.427-11.366-14.444-24.426-17.892-38.676zm77.784 77.781c-14.25-3.447-27.311-9.464-38.678-17.891l26.085-26.085 28.285 28.285zm36.904-36.905-28.285-28.285 26.871-26.871 28.285 28.285zm34.248 34.249-13.036-13.036 26.871-26.871 23.788 23.787c-12.055 6.954-24.692 12.375-37.623 16.12zm76.768-46.27c-4.528 4.528-9.235 8.789-14.092 12.778l-27.628-27.628 26.87-26.87 27.628 27.628c-3.989 4.857-8.25 9.564-12.778 14.092zm30.151-39.145-23.787-23.787 26.87-26.87 13.036 13.036c-3.745 12.929-9.166 25.565-16.119 37.621zm3.083-93.084-28.284-28.284 26.085-26.085c8.427 11.367 14.444 24.427 17.892 38.677z"/></g></svg>