<svg id="Capa_1" enable-background="new 0 0 510 510" height="512" viewBox="0 0 510 510" width="512" xmlns="http://www.w3.org/2000/svg"><g><path d="m255 390h30v30h-30z"/><path d="m285 330h30v30h-30z"/><path d="m315 390h30v30h-30z"/><path d="m379.279 480c9.73-8.582 18.066-18.71 24.612-30h61.109v-30h-48.797c2.478-9.592 3.797-19.645 3.797-30 0-66.168-53.832-120-120-120-32.73 0-62.435 13.176-84.106 34.496-7.037-36.661-19.905-68.59-37.425-92.17-16.268-21.894-17.99-50.83-7.806-74.58 5.951-13.877 9.096-29.765 9.096-45.946.001-44.815-25.931-91.8-68.759-91.8-43.031 0-68.76 47.284-68.76 91.8 0 39.105 15.36 48.115 15.36 75.128-.208 1.383 2.077 23.667-14.069 45.398-27.665 37.233-43.531 94.776-43.531 157.874 0 87.718 30.169 135.47 31.676 139.8h158.647c2.314-5.071 10.295-18.761 17.781-42.923 22.031 26.223 55.047 42.923 91.896 42.923h210v-30zm-292.218-300h47.878c1.102 10.758 3.941 21.321 8.355 31.2h-64.588c4.414-9.879 7.253-20.442 8.355-31.2zm23.939-150c21.01 0 38.76 28.301 38.76 61.8 0 28.766-9.549 33.285-13.88 58.2h-49.759c-4.291-24.686-13.88-29.765-13.88-58.2-.001-33.499 17.749-61.8 38.759-61.8zm60.415 450h-120.838c-13.309-30.707-20.577-69.282-20.577-109.8 0-49.914 11.195-96.929 30.327-129h101.348c15.157 25.461 25.504 60.706 28.994 99.35-6.851 15.087-10.669 31.831-10.669 49.45 0 13.736 2.327 26.938 6.595 39.239-3.494 18.391-8.676 35.703-15.18 50.761zm38.585-90c0-49.626 40.374-90 90-90s90 40.374 90 90-40.374 90-90 90-90-40.374-90-90z"/></g></svg>