<svg id="Capa_1" enable-background="new 0 0 512 512" height="512" viewBox="0 0 512 512" width="512" xmlns="http://www.w3.org/2000/svg"><g><path d="m426.403 340.81c-47.198 0-85.598 38.398-85.598 85.595 0 11.478 2.287 22.427 6.403 32.438.101.275.205.547.322.816 13.005 30.727 43.462 52.341 78.873 52.341s65.869-21.615 78.874-52.343c.111-.256.211-.516.307-.778 4.125-10.021 6.417-20.983 6.417-32.474-.001-47.197-38.4-85.595-85.598-85.595zm0 29.999c29.18 0 53.165 22.601 55.409 51.214-15.813-11.699-35.137-18.245-55.411-18.245-20.27 0-39.593 6.544-55.406 18.24 2.245-28.611 26.229-51.209 55.408-51.209zm0 111.192c-20.092 0-37.728-10.714-47.498-26.728 11.929-13.586 29.142-21.496 47.496-21.496 18.357 0 35.57 7.912 47.495 21.502-9.771 16.011-27.404 26.722-47.493 26.722z"/><path d="m46.821 476.209c5.857 5.857 15.355 5.858 21.213 0 .077-.077 101.928-101.924 101.928-101.924.312-.335 31.462-33.186 86.38-41.273 13.687 2.342 27.873 2.813 42.481 1.403 44.026-4.245 86.947-25.258 120.856-59.166s54.922-76.828 59.168-120.853c4.351-45.111-9.305-86.006-38.452-115.152-29.148-29.147-70.052-42.798-115.155-38.452-44.026 4.246-86.947 25.259-120.856 59.167s-54.922 76.828-59.168 120.853c-1.44 14.935-.895 29.403 1.521 43.141-4.398 30.874-19.454 65.734-40.844 87.123l-101.499 101.495c-5.858 5.858-5.858 15.355 0 21.212zm168.59-384.007 50.658 50.656-28.284 28.284-45.186-45.185c6.103-11.724 13.719-23.088 22.812-33.755zm54.966-44.029 45.19 45.189-28.285 28.284-50.652-50.651c10.666-9.093 22.024-16.719 33.747-22.822zm173.278 130.848-36.165-36.164 37.667-37.666c6.489 22.872 5.878 48.514-1.502 73.83zm-12.194 30.232c-6.103 11.724-13.719 23.088-22.813 33.755l-50.656-50.654 28.285-28.284zm-77.783 77.78-45.183-45.182 28.284-28.284 50.655 50.654c-10.667 9.093-22.031 16.709-33.756 22.812zm-66.396-66.395-28.285-28.284 28.285-28.284 28.285 28.284zm49.498-49.496-28.285-28.284 28.285-28.284 28.284 28.284zm-120.208 21.212-37.665 37.664c-6.778-23.884-5.539-49.681 1.5-73.829zm21.213 21.213 28.285 28.284-45.603 45.602c-11.304-7.458-20.821-16.972-28.285-28.283zm11.833 87.159 37.664-37.663 36.163 36.162c-24.253 7.069-50.042 8.249-73.827 1.501zm182.265-224.685-45.605 45.604-28.284-28.284 45.606-45.606c11.289 7.449 20.819 16.975 28.283 28.286zm-57.439-41.555-37.664 37.663-36.166-36.165c24.011-6.998 49.776-8.324 73.83-1.498zm-190.777 261.477c7.404 7.404 15.57 13.801 24.365 19.164-22.211 8.867-38.574 20.154-48.583 28.292l-22.357-22.357c7.999-10.044 19.108-26.485 27.813-48.801 5.28 8.545 11.544 16.485 18.762 23.702zm-67.169 46.931 21.214 21.213-80.285 80.283-21.214-21.213z"/></g></svg>